<?xml version="1.0" standalone="no"?>
<!DOCTYPE svg PUBLIC "-//W3C//DTD SVG 20010904//EN"
 "http://www.w3.org/TR/2001/REC-SVG-20010904/DTD/svg10.dtd">
<svg version="1.0" xmlns="http://www.w3.org/2000/svg"
 width="84.000000pt" height="84.000000pt" viewBox="0 0 84.000000 84.000000"
 preserveAspectRatio="xMidYMid meet">
<metadata>
Created by potrace 1.14, written by Peter Selinger 2001-2017
</metadata>
<g transform="translate(0.000000,84.000000) scale(0.100000,-0.100000)"
fill="#000000" stroke="none">
<path d="M355 796 c-72 -77 -63 -211 17 -240 35 -12 90 22 114 72 28 56 25
144 -6 177 -36 38 -84 34 -125 -9z"/>
<path d="M138 696 c-48 -24 -79 -126 -56 -186 36 -95 126 -93 163 4 41 106
-27 222 -107 182z"/>
<path d="M624 699 c-55 -16 -128 -112 -119 -158 2 -9 4 -24 4 -33 2 -32 41
-58 83 -54 74 8 138 75 146 154 7 75 -40 112 -114 91z"/>
<path d="M208 411 c-28 -14 -73 -45 -100 -71 -59 -55 -70 -93 -38 -132 21 -27
39 -34 152 -57 50 -11 64 -20 125 -81 61 -61 73 -69 99 -64 15 3 34 10 41 16
55 45 31 297 -35 363 -60 61 -154 71 -244 26z"/>
<path d="M645 416 c-17 -7 -45 -30 -63 -50 -26 -30 -32 -45 -32 -81 0 -40 4
-48 31 -64 25 -15 38 -17 71 -10 82 19 136 88 129 167 -1 6 -10 21 -21 32 -23
23 -70 26 -115 6z"/>
</g>
</svg>
