<svg data-name="Layer 1" xmlns="http://www.w3.org/2000/svg" viewBox="0 0 116.19 20.39">
  <path id="logo-layer" d="M21.31 3.17h6.13c4.54 0 7.64 2.8 7.64 7s-3.1 7-7.64 7h-6.13Zm6 11.8c3.12 0 5.14-1.9 5.14-4.8s-2-4.8-5.14-4.8h-3.4V15ZM37.11 11.83a5.38 5.38 0 0 1 5.69-5.46 5.37 5.37 0 0 1 5.7 5.46 5.39 5.39 0 0 1-5.7 5.48 5.39 5.39 0 0 1-5.69-5.48Zm8.87 0a3.18 3.18 0 1 0-6.35 0 3.18 3.18 0 1 0 6.35 0ZM61.9 6.49v9.06c0 3.88-2 5.64-5.76 5.64a8.52 8.52 0 0 1-5.21-1.52l1.12-1.88a6.48 6.48 0 0 0 4 1.28c2.36 0 3.4-1.08 3.4-3.24v-.56a4.71 4.71 0 0 1-3.59 1.42 5.1 5.1 0 0 1-5.4-5.18 5.07 5.07 0 0 1 5.4-5.14 4.63 4.63 0 0 1 3.71 1.54V6.49Zm-2.46 5a3.26 3.26 0 1 0-3.25 3.06 3 3 0 0 0 3.25-3.04ZM64.39 15.69l.9-2a7.76 7.76 0 0 0 4.63 1.54c2.18 0 3.1-.78 3.1-1.82 0-3-8.33-1-8.33-6.24 0-2.26 1.8-4.18 5.65-4.18A8.85 8.85 0 0 1 75 4.21l-.82 2a7.79 7.79 0 0 0-3.87-1.1c-2.16 0-3 .84-3 1.9 0 3 8.31 1 8.31 6.18 0 2.24-1.82 4.16-5.66 4.16a9 9 0 0 1-5.57-1.66ZM88.84 11.05v6.12h-2.5v-5.8c0-1.9-.94-2.82-2.55-2.82-1.78 0-3 1.08-3 3.22v5.4h-2.5V2.33h2.5v5.4a4.78 4.78 0 0 1 3.56-1.36c2.59 0 4.49 1.46 4.49 4.68ZM91.63 11.83a5.7 5.7 0 0 1 11.39 0 5.7 5.7 0 0 1-11.39 0Zm8.87 0a3.18 3.18 0 1 0-6.35 0 3.18 3.18 0 1 0 6.35 0ZM117.16 11.83a5.2 5.2 0 0 1-5.43 5.48 4.39 4.39 0 0 1-3.42-1.44v5.18h-2.5V6.49h2.38v1.4a4.4 4.4 0 0 1 3.54-1.52 5.2 5.2 0 0 1 5.43 5.46Zm-2.54 0a3.18 3.18 0 1 0-6.35 0 3.18 3.18 0 1 0 6.35 0ZM16.45 4h-.11c-1.5-.5-3 .57-3.84 1.8s-1.09 2.88 0 3.82a1.4 1.4 0 0 0 .58.27c1.81.3 3.48-1.17 4.08-2.81a2.35 2.35 0 0 0-.74-3Zm-5.84-3A2.24 2.24 0 0 0 8 1.8c-1.12 1.48-1.48 3.9-.08 5.31a1.47 1.47 0 0 0 .47.27c1.23.42 2.4-.61 2.91-1.68.71-1.39.86-3.35-.34-4.49a2 2 0 0 0-.35-.21Zm7 9.75c-1.52-.71-3.33.24-4.22 1.56-.74.9-.93 2.52.16 3.21 1.58.82 3.57-.31 4.4-1.75a2.15 2.15 0 0 0-.32-3.06ZM4.57 4.12a1.68 1.68 0 0 0-2 .24 3.9 3.9 0 0 0 .06 5.54 1.66 1.66 0 0 0 2.22-.3 4 4 0 0 0 .33-4.91 1.59 1.59 0 0 0-.61-.57Zm4.93 6.64a5 5 0 0 0-4.11-.18 10.22 10.22 0 0 0-3.86 2.77 1.87 1.87 0 0 0 .32 2.94c1.24.72 2.8.42 4.09 1a6.77 6.77 0 0 1 2.57 2.36 2 2 0 0 0 2.72.6 4 4 0 0 0 .88-3A11.42 11.42 0 0 0 11 12.17a3.62 3.62 0 0 0-1.5-1.41Z" transform="translate(-.96 -.81)" style="fill:#222326"/>
</svg>
